<svg width="120" height="100" viewBox="0 0 120 100" fill="none" xmlns="http://www.w3.org/2000/svg">
<path d="M52 22.5V77.5H39.5V22.5H52ZM39.1927 22.5029C39.1927 22.5028 39.1935 22.5026 39.1952 22.5022C39.1936 22.5027 39.1927 22.5029 39.1927 22.5029ZM39.2021 77.4982C39.2021 77.4982 39.2028 77.4983 39.204 77.4986L39.2021 77.4982ZM52.3062 77.4974C52.3061 77.4974 52.3053 77.4976 52.3038 77.4979C52.3054 77.4974 52.3062 77.4973 52.3062 77.4974ZM52.3048 22.5022C52.3065 22.5026 52.3073 22.5028 52.3073 22.5029C52.3073 22.5029 52.3064 22.5027 52.3048 22.5022Z" stroke="#F8F8F8" stroke-width="5"/>
<path d="M68.6666 77.5V22.5H81.1666V77.5H68.6666ZM81.4739 22.5029C81.4739 22.5029 81.4731 22.5027 81.4714 22.5022C81.4731 22.5026 81.4739 22.5028 81.4739 22.5029ZM81.4633 77.4981C81.4633 77.4981 81.4624 77.4984 81.4603 77.4988C81.4622 77.4982 81.4632 77.498 81.4633 77.4981ZM68.3687 77.4982C68.3687 77.4982 68.3694 77.4983 68.3706 77.4986L68.3687 77.4982ZM68.369 22.5021C68.3689 22.502 68.3699 22.5017 68.372 22.5013C68.37 22.502 68.369 22.5022 68.369 22.5021Z" stroke="#F8F8F8" stroke-width="5"/>
<path d="M5 1H119V99H5C2.79086 99 1 97.2091 1 95V5C1 2.79086 2.79086 1 5 1Z" stroke="#F8F8F8" stroke-width="2"/>
</svg>
