<svg width="120" height="100" viewBox="0 0 120 100" fill="none" xmlns="http://www.w3.org/2000/svg">
<path d="M1 5C1 2.79086 2.79086 1 5 1H119V99H5C2.79086 99 1 97.2091 1 95V5Z" stroke="#E9E9E9" stroke-width="2"/>
<path d="M35.5169 77.1146H35.5V23.8854H35.5169V21.3854C35.5169 20.8796 35.9286 20.5 36.3685 20.5C36.4991 20.5 36.6564 20.5269 36.9413 20.6937C36.9429 20.6947 36.9444 20.6956 36.946 20.6965L83.8524 48.6146C84.3675 49.109 84.6667 49.7683 84.6667 50.5C84.6667 51.2446 84.3585 51.9092 83.8614 52.38L37.0332 80.2479C36.5665 80.4965 36.4385 80.5 36.3685 80.5C35.9286 80.5 35.5169 80.1204 35.5169 79.6146V77.1146Z" stroke="#F8F8F8" stroke-width="5"/>
</svg>
